<svg xmlns="http://www.w3.org/2000/svg" width="310" height="310" viewBox="0 0 310 310">
  <defs>
    <style>
      .cls-1 {
        fill: #fff;
      }
    </style>
  </defs>
  <g id="EarthQuakeIcon" transform="translate(-67 -722)">
    <path id="長方形_7" data-name="長方形 7" class="cls-1" d="M20,15a5.006,5.006,0,0,0-5,5V290a5.006,5.006,0,0,0,5,5H290a5.006,5.006,0,0,0,5-5V20a5.006,5.006,0,0,0-5-5H20M20,0H290a20,20,0,0,1,20,20V290a20,20,0,0,1-20,20H20A20,20,0,0,1,0,290V20A20,20,0,0,1,20,0Z" transform="translate(67 722)"/>
    <g id="地震のフリー素材2" transform="translate(78.831 740.372)">
      <path id="パス_1" data-name="パス 1" class="cls-1" d="M236.894,119.733l15.859,15.062,12.651-13.353L170.521,31.314,85.071,121.442l14.064,13.353,14.276-15.054L116.587,180H105.749L88.14,207.674l17.609,7.549L70.526,273.089l12.579-47.806-19.382-6.519L80.591,180H0V282.628H283.373V180h-43.3ZM162.972,180l-1.39-26.341H192.3L193.686,180Z"/>
      <path id="パス_2" data-name="パス 2" class="cls-1" d="M129.409,203.76l5.354-7.5a26.034,26.034,0,0,1-8.336-9.168,19.942,19.942,0,0,1-2.191-9.255c-.045-6.888,3.315-13.906,6.006-17.888l-7.666-5.111v0c-3.3,5-7.509,13.272-7.554,23a29.158,29.158,0,0,0,3.212,13.465A35.186,35.186,0,0,0,129.409,203.76Z" transform="translate(-50.695 -54.443)"/>
      <path id="パス_3" data-name="パス 3" class="cls-1" d="M483.406,160.86a19.36,19.36,0,0,1,2.475,9.826,33.4,33.4,0,0,1-3.176,13.479l8.359,3.887a42.494,42.494,0,0,0,4.031-17.366,28.61,28.61,0,0,0-3.712-14.437,31.551,31.551,0,0,0-13.591-12.237l-4.148,8.233C478.7,154.8,481.612,157.774,483.406,160.86Z" transform="translate(-208.757 -49.671)"/>
    </g>
  </g>
</svg>
